<svg width="97" height="98" viewBox="0 0 97 98" fill="none" xmlns="http://www.w3.org/2000/svg">
<path d="M17.5812 75.3375L18.0965 74.6117L42.4072 28.0188L42.4587 27.5258L31.7432 7.19078C31.5471 6.81892 31.2401 6.5188 30.8658 6.33287C30.4916 6.14693 30.0689 6.08461 29.6576 6.1547C29.2464 6.2248 28.8673 6.42377 28.5741 6.72347C28.2809 7.02317 28.0885 7.40842 28.0239 7.82472L17.5812 75.3375Z" fill="#FFC24A"/>
<path d="M17.8844 74.7863L18.2724 74.0207L42.3314 27.9117L31.6432 7.49707C31.467 7.14204 31.1816 6.85427 30.8298 6.67687C30.4781 6.49947 30.0789 6.44199 29.6922 6.51304C29.3054 6.58409 28.9518 6.77985 28.6844 7.07098C28.4169 7.36212 28.2501 7.73296 28.2088 8.12795L17.8844 74.7863Z" fill="#FFA712"/>
<path d="M50.2703 42.9056L58.2485 34.6369L50.2672 19.2601C50.0916 18.9292 49.8304 18.6525 49.5114 18.4597C49.1925 18.2669 48.8277 18.165 48.4561 18.165C48.0844 18.165 47.7196 18.2669 47.4007 18.4597C47.0818 18.6525 46.8205 18.9292 46.6449 19.2601L42.3799 27.4737V28.175L50.2703 42.9056Z" fill="#F4BD62"/>
<path d="M50.1278 42.5689L57.8847 34.5451L50.1278 19.6001C50.0008 19.2766 49.7839 18.9971 49.5033 18.7954C49.2227 18.5936 48.8903 18.4781 48.5461 18.4629C48.202 18.4477 47.8609 18.5334 47.5639 18.7096C47.2669 18.8859 47.0267 19.1451 46.8722 19.4562L42.586 27.8137L42.4587 28.2394L50.1278 42.5689Z" fill="#FFA50E"/>
<path d="M17.5873 75.3405L17.8207 75.1017L18.6664 74.7556L49.7671 43.4507L50.1611 42.3666L42.4042 27.4277L17.5873 75.3405Z" fill="#F6820C"/>
<path d="M51.2645 91.1277L79.4187 75.267L71.3738 25.2534C71.3161 24.9008 71.1634 24.5711 70.9325 24.3005C70.7015 24.0298 70.4011 23.8287 70.0645 23.7193C69.7278 23.6098 69.3677 23.5961 69.0238 23.6798C68.68 23.7635 68.3656 23.9413 68.1152 24.1937L17.5812 75.3375L45.5688 91.1247C46.4389 91.6152 47.4187 91.8727 48.4151 91.8727C49.4115 91.8727 50.3914 91.6152 51.2615 91.1247" fill="#FDE068"/>
<path d="M79.1611 75.1354L71.1828 25.4984C71.1688 25.1612 71.056 24.8357 70.8587 24.5633C70.6615 24.2909 70.3887 24.0837 70.0749 23.9679C69.7611 23.8522 69.4203 23.8331 69.0958 23.9131C68.7712 23.9931 68.4774 24.1686 68.2516 24.4173L17.8844 75.2426L45.5627 90.8613C46.4259 91.3478 47.3979 91.6032 48.3863 91.6032C49.3747 91.6032 50.3467 91.3478 51.2099 90.8613L79.1611 75.1354Z" fill="#FCCA3F"/>
<path d="M51.2645 90.6501C50.3944 91.1406 49.4145 91.3981 48.4181 91.3981C47.4217 91.3981 46.4419 91.1406 45.5718 90.6501L17.8116 75.0987L17.5812 75.3376L45.5688 91.1248C46.4389 91.6153 47.4187 91.8728 48.4151 91.8728C49.4115 91.8728 50.3914 91.6153 51.2615 91.1248L79.4187 75.2671L79.349 74.8384L51.2645 90.6501Z" fill="#EEAB37"/>
</svg>
