<svg width="104" height="104" viewBox="0 0 104 104" fill="none" xmlns="http://www.w3.org/2000/svg">
<path d="M54.015 97.5L51.5743 96.6908C51.5743 96.6908 51.8993 84.3408 47.4305 83.473C44.5055 80.067 47.8628 -61.9352 58.5553 82.9888C56.5265 84.0178 54.9742 85.7914 54.223 87.9385C53.8204 91.1097 53.7507 94.3143 54.015 97.5Z" fill="url(#paint0_linear_34_407)"/>
<path d="M55.3345 85.5693C61.8331 80.6773 66.8099 74.0414 69.6865 66.4329C72.563 58.8244 73.2212 50.5558 71.5845 42.5881C66.807 21.5118 55.4938 14.5828 54.275 11.9373C53.2235 10.29 52.3259 8.54929 51.5938 6.7373L52.494 65.4616C52.494 65.4616 50.6285 83.4081 55.3345 85.5693Z" fill="url(#paint1_linear_34_407)"/>
<path d="M50.3328 86.3493C50.3328 86.3493 30.4395 72.8 31.59 48.8312C31.6973 41.6053 33.3541 34.4866 36.4485 27.9559C39.5428 21.4252 44.0027 15.6346 49.5268 10.9753C50.1723 10.4268 50.6852 9.7392 51.0269 8.96409C51.3685 8.18898 51.5301 7.34652 51.4995 6.5C52.7377 9.165 52.5362 46.2898 52.6662 50.6318C53.17 67.522 51.727 83.161 50.3328 86.3493Z" fill="url(#paint2_linear_34_407)"/>
<defs>
<linearGradient id="paint0_linear_34_407" x1="37.6078" y1="52.82" x2="65.6608" y2="62.3397" gradientUnits="userSpaceOnUse">
<stop offset="0.231" stop-color="#999875"/>
<stop offset="0.563" stop-color="#9B9977"/>
<stop offset="0.683" stop-color="#A09F7E"/>
<stop offset="0.768" stop-color="#A9A889"/>
<stop offset="0.837" stop-color="#B7B69A"/>
<stop offset="0.896" stop-color="#C9C7B0"/>
<stop offset="0.948" stop-color="#DEDDCB"/>
<stop offset="0.994" stop-color="#F8F6EB"/>
<stop offset="1" stop-color="#FBF9EF"/>
</linearGradient>
<linearGradient id="paint1_linear_34_407" x1="47.8951" y1="6.31768" x2="60.2972" y2="83.7617" gradientUnits="userSpaceOnUse">
<stop stop-color="#48A547"/>
<stop offset="1" stop-color="#3F9143"/>
</linearGradient>
<linearGradient id="paint2_linear_34_407" x1="29.8788" y1="51.2038" x2="63.1608" y2="40.0577" gradientUnits="userSpaceOnUse">
<stop stop-color="#41A247"/>
<stop offset="0.352" stop-color="#4BA74B"/>
<stop offset="0.956" stop-color="#67B554"/>
<stop offset="1" stop-color="#69B655"/>
</linearGradient>
</defs>
</svg>
